<svg xmlns="http://www.w3.org/2000/svg" width="512" height="512" viewBox="0 0 512 512"><rect width="512" height="512" fill="none"/><rect x="90" y="155" width="332" height="190" rx="40" fill="#062246" stroke="#00142d" stroke-width="10"/><rect x="130" y="205" width="180" height="97" rx="12" fill="#b4260c" stroke="#ff7716" stroke-width="10"/><rect x="160" y="176" width="132" height="18" rx="8" fill="#ffd24a" stroke="#ffee7f" stroke-width="6"/><circle cx="366" cy="221" r="16" fill="#ebf3ff"/><circle cx="366" cy="271" r="16" fill="#ebf3ff"/><path d="M220 293 L185 262 L206 220 L218 252 L242 198 L271 242 L261 279 Z" fill="#ff9a2d"/><path d="M228 291 L207 265 L224 237 L233 262 L249 228 L263 263 L253 289 Z" fill="#fff4cd"/><line x1="190" y1="124" x2="224" y2="169" stroke="#ff9a2d" stroke-width="12" stroke-linecap="round"/><line x1="256" y1="111" x2="256" y2="153" stroke="#ff9a2d" stroke-width="12" stroke-linecap="round"/><line x1="321" y1="124" x2="287" y2="169" stroke="#ff9a2d" stroke-width="12" stroke-linecap="round"/></svg>